<?xml version="1.0" encoding="UTF-8" standalone="no"?>
<!-- Generator: Adobe Illustrator 26.5.1, SVG Export Plug-In . SVG Version: 6.00 Build 0)  -->

<svg
   version="1.1"
   x="0px"
   y="0px"
   viewBox="0 0 1920 1080"
   style="enable-background:new 0 0 1920 1080;"
   xml:space="preserve"
   id="svg170"
   sodipodi:docname="ckit-logo.svg"
   inkscape:version="1.2.2 (b0a84865, 2022-12-01)"
   xmlns:inkscape="http://www.inkscape.org/namespaces/inkscape"
   xmlns:sodipodi="http://sodipodi.sourceforge.net/DTD/sodipodi-0.dtd"
   xmlns="http://www.w3.org/2000/svg"
   xmlns:svg="http://www.w3.org/2000/svg"><defs
   id="defs174"><linearGradient
     id="textGrad"
     x1="339.61589"
     y1="647.03455"
     x2="928.63738"
     y2="647.03455"
     gradientTransform="matrix(1.1094472,0,0,0.48345908,642.6699,89.929445)"
     gradientUnits="userSpaceOnUse">
    <stop
   offset="0%"
   stop-color="#68505F"
   id="stop1261" />
    <stop
   offset="40%"
   stop-color="#9B5A64"
   id="stop1263" />
    <stop
   offset="100%"
   stop-color="#C86469"
   id="stop1265" />
  </linearGradient></defs><sodipodi:namedview
   id="namedview172"
   pagecolor="#ffffff"
   bordercolor="#000000"
   borderopacity="0.25"
   inkscape:showpageshadow="2"
   inkscape:pageopacity="0.0"
   inkscape:pagecheckerboard="0"
   inkscape:deskcolor="#d1d1d1"
   showgrid="false"
   inkscape:zoom="0.64895833"
   inkscape:cx="712.68058"
   inkscape:cy="546.26003"
   inkscape:window-width="2522"
   inkscape:window-height="1205"
   inkscape:window-x="261"
   inkscape:window-y="62"
   inkscape:window-maximized="0"
   inkscape:current-layer="Layer_1_copy" />
<style
   type="text/css"
   id="style132">
	.st0{fill:none;}
	.st1{fill:#68505F;}
	.st2{fill:#C86469;}
	.st3{fill:#9B5A64;}
</style>
<g
   id="Layer_1_copy">
	<path
   class="st0"
   d="M861.81,563.45c3.02-31.85-6.42-57.06-7.5-59.84c-4.77-12.16-19.31-18.51-32.48-14.11   c-13.16,4.41-19.98,17.78-15.22,29.94c0.07,0.19,7.06,19,4.56,41.35c-1.96,17.54-8.98,32.08-21.22,43.94l29,39.25   C849.73,618.54,859.53,587.49,861.81,563.45z"
   id="path134" />
	<path
   class="st0"
   d="M774.56,616.64c-10.18-13.63-26.44-22.47-44.72-22.47c-24.23,0-45.54,15.47-53.05,38.5   c-0.26,0.81-0.18,1.68,0.24,2.42c0.41,0.74,1.12,1.27,1.94,1.46l29.66,6.95c1.41,0.34,2.84-0.37,3.44-1.68   c3.19-6.94,10.16-11.42,17.77-11.42c10.79,0,19.56,8.77,19.56,19.56s-8.77,19.56-19.56,19.56c-7.61,0-14.58-4.48-17.77-11.43   c-0.6-1.31-2.03-2.01-3.44-1.68l-29.66,6.96c-0.83,0.19-1.53,0.72-1.94,1.46c-0.42,0.74-0.5,1.61-0.24,2.42   c7.5,23.03,28.82,38.5,53.05,38.5c25.29,0,46.69-16.92,53.51-40.03c1.03-0.35,2.06-0.74,3.06-1.22   c12.86-6.15,23.59-13.1,32.55-20.51l-29-39.25C785.52,609.05,780.4,613.02,774.56,616.64z"
   id="path136" />
	<g
   id="g142">
		<path
   class="st1"
   d="M477.36,564.12l-75.54-102.24c-3.5-3.9-6.77-8.25-9.78-13.12c0.02-0.01,0.04-0.03,0.05-0.04    c13.59-10.18,22.4-26.4,22.4-44.64c0-24.21-15.46-45.51-38.47-53c-0.8-0.26-1.68-0.17-2.42,0.24c-0.74,0.41-1.27,1.12-1.46,1.94    l-6.95,29.63c-0.32,1.4,0.37,2.84,1.68,3.43c6.93,3.18,11.42,10.15,11.42,17.75c0,6.33-3.04,11.94-7.71,15.52    c-3.29,2.51-7.38,4.03-11.83,4.03c-10.78,0-19.54-8.77-19.54-19.54c0-6.34,3.15-12.21,8.21-15.84c1-0.72,2.06-1.38,3.21-1.91    c1.31-0.6,2-2.04,1.68-3.43l-6.95-29.63c-0.19-0.82-0.72-1.53-1.46-1.94c-0.74-0.41-1.61-0.5-2.42-0.24    c-5.71,1.86-10.96,4.58-15.62,7.97C311.74,369.33,303,385.88,303,404.08c0,25.27,16.91,46.65,40,53.47    c0.34,1.03,0.74,2.05,1.22,3.06c27.24,56.95,69.94,72.4,100.97,75.34c3.8,0.36,7.48,0.5,11.07,0.54v27.64H477.36z"
   id="path138" />
		<path
   class="st1"
   d="M455.66,729.13c-29.85,0-67.47-18.15-84.02-40.54l-46.5-62.92c-16.55-22.39-5.76-40.54,24.09-40.54h143.65    l106.39,144L455.66,729.13z"
   id="path140" />
	</g>
	<g
   id="g148">
		<polygon
   class="st2"
   points="749.17,383.78 626.72,383.78 647.26,411.58 724.98,411.58   "
   id="polygon144" />
		<path
   class="st2"
   d="M811.18,560.8c2.5-22.35-4.49-41.17-4.56-41.35c-4.77-12.16,2.06-25.54,15.22-29.94    c13.17-4.4,27.71,1.95,32.48,14.11c1.09,2.77,10.52,27.99,7.5,59.84c-2.28,24.04-12.09,55.09-42.85,80.54l60.02,81.24    c18.04-7.58,30.71-25.42,30.71-46.21V529.53c0-8.78-2.31-17.41-6.69-25.02L842.77,400c-9.51-16.5-26.43-25.1-43.48-25.09    c-13.78,0-27.64,5.61-37.74,17.21l-69.6,79.96l98.01,132.66C802.2,592.88,809.22,578.34,811.18,560.8z"
   id="path146" />
	</g>
	<g
   id="g154">
		<path
   class="st3"
   d="M487.84,519.05c0-4.52,1.63-8.88,4.6-12.29l73.74-84.73c-8.42-5.19-14.01-14.16-14.01-24.35    c0-3.29,0.61-6.44,1.68-9.39c-0.8,0.81-1.59,1.63-2.35,2.51l-82.15,94.38c-6.31,0.75-13.68,1.05-21.52,0.17    c-18.58-2.08-33.79-9.84-46.01-23.47l75.54,102.24h10.48V519.05z"
   id="path150" />
		<path
   class="st3"
   d="M582.91,383.78c-8.61,0-15.58,6.22-15.58,13.9c0,7.68,6.98,13.9,15.58,13.9h64.35l-20.54-27.8H582.91z"
   id="path152" />
	</g>





	<path
   class="st3"
   d="M818.96,643.99c-8.96,7.42-19.69,14.36-32.55,20.51c-1,0.48-2.02,0.88-3.06,1.22   c-6.82,23.11-28.22,40.03-53.51,40.03c-24.23,0-45.54-15.47-53.05-38.5c-0.26-0.81-0.18-1.68,0.24-2.42   c0.41-0.74,1.12-1.27,1.94-1.46l29.66-6.96c1.41-0.33,2.84,0.38,3.44,1.68c3.19,6.94,10.16,11.43,17.77,11.43   c10.79,0,19.56-8.77,19.56-19.56s-8.77-19.56-19.56-19.56c-7.61,0-14.58,4.48-17.77,11.42c-0.6,1.31-2.03,2.02-3.44,1.68   l-29.66-6.95c-0.83-0.19-1.53-0.72-1.94-1.46c-0.42-0.74-0.5-1.61-0.24-2.42c7.5-23.03,28.82-38.5,53.05-38.5   c18.28,0,34.54,8.84,44.72,22.47c5.84-3.62,10.96-7.59,15.41-11.9l-98.01-132.66l-10.01,11.5l-32.71-56.77h-20.67h-15.79   l51.41,89.21c1.26,3.02,2.11,6.2,2.49,9.45v49.06c0,11.91-9.54,10.6-35.55,10.6H492.87l106.39,144h50.64c0,0,0.01,0,0.01,0h66.87   h20.76h122.02c6.88,0,13.44-1.39,19.4-3.9L818.96,643.99z"
   id="path166" />
<text
   x="1345.7493"
   y="544.00153"
   text-anchor="middle"
   dominant-baseline="middle"
   font-family="Nunito, 'Trebuchet MS', sans-serif"
   font-weight="300"
   font-size="307.597px"
   letter-spacing="-8"
   fill="url(#textGrad)"
   id="text1308"
   style="fill:url(#textGrad);stroke-width:0.732375">justx</text><text
   xml:space="preserve"
   style="font-style:normal;font-variant:normal;font-weight:normal;font-stretch:normal;font-size:146.667px;font-family:'Hiragino Kaku Gothic StdN';-inkscape-font-specification:'Hiragino Kaku Gothic StdN';text-align:center;text-anchor:middle;fill:#02ffff;fill-opacity:1;stroke-width:0.174"
   x="1231.2039"
   y="127.89727"
   id="text1640"><tspan
     sodipodi:role="line"
     id="tspan1638"
     x="1231.2039"
     y="127.89727"
     style="font-style:normal;font-variant:normal;font-weight:normal;font-stretch:normal;font-family:Nunito, 'Trebuchet MS', sans-serif;-inkscape-font-specification:'Nunito, Trebuchet MS, sans-serif'">justx</tspan></text></g>
<g
   id="Layer_2">
</g>
</svg>
