<?xml version="1.0" encoding="UTF-8" standalone="no"?>
<!-- Generator: Adobe Illustrator 26.5.1, SVG Export Plug-In . SVG Version: 6.00 Build 0)  -->

<svg
   version="1.1"
   x="0px"
   y="0px"
   viewBox="0 0 700 500"
   xml:space="preserve"
   id="svg170"
   sodipodi:docname="ckit-logo-path.svg"
   inkscape:version="1.2.2 (b0a84865, 2022-12-01)"
   width="700"
   height="500"
   xmlns:inkscape="http://www.inkscape.org/namespaces/inkscape"
   xmlns:sodipodi="http://sodipodi.sourceforge.net/DTD/sodipodi-0.dtd"
   xmlns="http://www.w3.org/2000/svg"
   xmlns:svg="http://www.w3.org/2000/svg"><defs
   id="defs174"><linearGradient
     id="textGrad"
     x1="339.61588"
     y1="647.03455"
     x2="928.63739"
     y2="647.03455"
     gradientTransform="matrix(1.1094472,0,0,0.48345908,636.50617,88.388514)"
     gradientUnits="userSpaceOnUse">
    <stop
   offset="0%"
   stop-color="#68505F"
   id="stop1261" />
    <stop
   offset="40%"
   stop-color="#9B5A64"
   id="stop1263" />
    <stop
   offset="100%"
   stop-color="#C86469"
   id="stop1265" />
  </linearGradient></defs><sodipodi:namedview
   id="namedview172"
   pagecolor="#ffffff"
   bordercolor="#000000"
   borderopacity="0.25"
   inkscape:showpageshadow="2"
   inkscape:pageopacity="0.0"
   inkscape:pagecheckerboard="0"
   inkscape:deskcolor="#d1d1d1"
   showgrid="false"
   inkscape:zoom="0.64895833"
   inkscape:cx="614.061"
   inkscape:cy="552.42376"
   inkscape:window-width="2522"
   inkscape:window-height="1205"
   inkscape:window-x="261"
   inkscape:window-y="34"
   inkscape:window-maximized="0"
   inkscape:current-layer="text1308" />
<style
   type="text/css"
   id="style132">
	.st0{fill:none;}
	.st1{fill:#68505F;}
	.st2{fill:#C86469;}
	.st3{fill:#9B5A64;}
</style>
<g
   id="Layer_1_copy">
	<path
   class="st0"
   d="m 607.55641,269.13218 c 3.02,-31.85 -6.42,-57.06 -7.5,-59.84 -4.77,-12.16 -19.31,-18.51 -32.48,-14.11 -13.16,4.41 -19.98,17.78 -15.22,29.94 0.07,0.19 7.06,19 4.56,41.35 -1.96,17.54 -8.98,32.08 -21.22,43.94 l 29,39.25 c 30.78,-25.44 40.58,-56.49 42.86,-80.53 z"
   id="path134" />
	<path
   class="st0"
   d="m 520.30641,322.32218 c -10.18,-13.63 -26.44,-22.47 -44.72,-22.47 -24.23,0 -45.54,15.47 -53.05,38.5 -0.26,0.81 -0.18,1.68 0.24,2.42 0.41,0.74 1.12,1.27 1.94,1.46 l 29.66,6.95 c 1.41,0.34 2.84,-0.37 3.44,-1.68 3.19,-6.94 10.16,-11.42 17.77,-11.42 10.79,0 19.56,8.77 19.56,19.56 0,10.79 -8.77,19.56 -19.56,19.56 -7.61,0 -14.58,-4.48 -17.77,-11.43 -0.6,-1.31 -2.03,-2.01 -3.44,-1.68 l -29.66,6.96 c -0.83,0.19 -1.53,0.72 -1.94,1.46 -0.42,0.74 -0.5,1.61 -0.24,2.42 7.5,23.03 28.82,38.5 53.05,38.5 25.29,0 46.69,-16.92 53.51,-40.03 1.03,-0.35 2.06,-0.74 3.06,-1.22 12.86,-6.15 23.59,-13.1 32.55,-20.51 l -29,-39.25 c -4.44,4.31 -9.56,8.28 -15.4,11.9 z"
   id="path136" />
	<g
   id="g142"
   transform="translate(-254.25361,-294.31782)">
		<path
   class="st1"
   d="M 477.36,564.12 401.82,461.88 c -3.5,-3.9 -6.77,-8.25 -9.78,-13.12 0.02,-0.01 0.04,-0.03 0.05,-0.04 13.59,-10.18 22.4,-26.4 22.4,-44.64 0,-24.21 -15.46,-45.51 -38.47,-53 -0.8,-0.26 -1.68,-0.17 -2.42,0.24 -0.74,0.41 -1.27,1.12 -1.46,1.94 l -6.95,29.63 c -0.32,1.4 0.37,2.84 1.68,3.43 6.93,3.18 11.42,10.15 11.42,17.75 0,6.33 -3.04,11.94 -7.71,15.52 -3.29,2.51 -7.38,4.03 -11.83,4.03 -10.78,0 -19.54,-8.77 -19.54,-19.54 0,-6.34 3.15,-12.21 8.21,-15.84 1,-0.72 2.06,-1.38 3.21,-1.91 1.31,-0.6 2,-2.04 1.68,-3.43 l -6.95,-29.63 c -0.19,-0.82 -0.72,-1.53 -1.46,-1.94 -0.74,-0.41 -1.61,-0.5 -2.42,-0.24 -5.71,1.86 -10.96,4.58 -15.62,7.97 -14.12,10.27 -22.86,26.82 -22.86,45.02 0,25.27 16.91,46.65 40,53.47 0.34,1.03 0.74,2.05 1.22,3.06 27.24,56.95 69.94,72.4 100.97,75.34 3.8,0.36 7.48,0.5 11.07,0.54 v 27.64 h 21.1 z"
   id="path138" />
		<path
   class="st1"
   d="m 455.66,729.13 c -29.85,0 -67.47,-18.15 -84.02,-40.54 l -46.5,-62.92 c -16.55,-22.39 -5.76,-40.54 24.09,-40.54 h 143.65 l 106.39,144 z"
   id="path140" />
	</g>
	<g
   id="g148"
   transform="translate(-254.25361,-294.31782)">
		<polygon
   class="st2"
   points="724.98,411.58 749.17,383.78 626.72,383.78 647.26,411.58 "
   id="polygon144" />
		<path
   class="st2"
   d="m 811.18,560.8 c 2.5,-22.35 -4.49,-41.17 -4.56,-41.35 -4.77,-12.16 2.06,-25.54 15.22,-29.94 13.17,-4.4 27.71,1.95 32.48,14.11 1.09,2.77 10.52,27.99 7.5,59.84 -2.28,24.04 -12.09,55.09 -42.85,80.54 l 60.02,81.24 c 18.04,-7.58 30.71,-25.42 30.71,-46.21 v -149.5 c 0,-8.78 -2.31,-17.41 -6.69,-25.02 L 842.77,400 c -9.51,-16.5 -26.43,-25.1 -43.48,-25.09 -13.78,0 -27.64,5.61 -37.74,17.21 l -69.6,79.96 98.01,132.66 c 12.24,-11.86 19.26,-26.4 21.22,-43.94 z"
   id="path146" />
	</g>
	<g
   id="g154"
   transform="translate(-254.25361,-294.31782)">
		<path
   class="st3"
   d="m 487.84,519.05 c 0,-4.52 1.63,-8.88 4.6,-12.29 l 73.74,-84.73 c -8.42,-5.19 -14.01,-14.16 -14.01,-24.35 0,-3.29 0.61,-6.44 1.68,-9.39 -0.8,0.81 -1.59,1.63 -2.35,2.51 l -82.15,94.38 c -6.31,0.75 -13.68,1.05 -21.52,0.17 -18.58,-2.08 -33.79,-9.84 -46.01,-23.47 l 75.54,102.24 h 10.48 z"
   id="path150" />
		<path
   class="st3"
   d="m 582.91,383.78 c -8.61,0 -15.58,6.22 -15.58,13.9 0,7.68 6.98,13.9 15.58,13.9 h 64.35 l -20.54,-27.8 z"
   id="path152" />
	</g>





	<path
   class="st3"
   d="m 564.70641,349.67218 c -8.96,7.42 -19.69,14.36 -32.55,20.51 -1,0.48 -2.02,0.88 -3.06,1.22 -6.82,23.11 -28.22,40.03 -53.51,40.03 -24.23,0 -45.54,-15.47 -53.05,-38.5 -0.26,-0.81 -0.18,-1.68 0.24,-2.42 0.41,-0.74 1.12,-1.27 1.94,-1.46 l 29.66,-6.96 c 1.41,-0.33 2.84,0.38 3.44,1.68 3.19,6.94 10.16,11.43 17.77,11.43 10.79,0 19.56,-8.77 19.56,-19.56 0,-10.79 -8.77,-19.56 -19.56,-19.56 -7.61,0 -14.58,4.48 -17.77,11.42 -0.6,1.31 -2.03,2.02 -3.44,1.68 l -29.66,-6.95 c -0.83,-0.19 -1.53,-0.72 -1.94,-1.46 -0.42,-0.74 -0.5,-1.61 -0.24,-2.42 7.5,-23.03 28.82,-38.5 53.05,-38.5 18.28,0 34.54,8.84 44.72,22.47 5.84,-3.62 10.96,-7.59 15.41,-11.9 l -98.01,-132.66 -10.01,11.5 -32.71003,-56.77 h -20.67 -15.79 l 51.41003,89.21 c 1.26,3.02 2.11,6.2 2.49,9.45 v 49.06 c 0,11.91 -9.54003,10.6 -35.55003,10.6 h -138.26 l 106.39,144 h 50.64 c 0,0 0.01,0 0.01,0 h 66.87003 20.76 122.02 c 6.88,0 13.44,-1.39 19.4,-3.9 z"
   id="path166" />
<g
   aria-label="justx"
   id="text1308"
   style="font-weight:300;font-size:307.597px;font-family:Nunito, 'Trebuchet MS', sans-serif;letter-spacing:-8;dominant-baseline:middle;text-anchor:middle;fill:url(#textGrad);stroke-width:0.732375" /></g>
<g
   id="Layer_2">
</g>
</svg>
